<mxfile host="app.diagrams.net" modified="2023-10-19T22:39:45.206Z" agent="Mozilla/5.0 (Windows NT 10.0; Win64; x64) AppleWebKit/537.36 (KHTML, like Gecko) Chrome/118.0.0.0 Safari/537.36" etag="cuSiwaky8R3acNjuEUGz" version="22.0.5" type="device">
  <diagram name="PÃ¡gina-1" id="dXT1eyom0pZ9vew8mUtR">
    <mxGraphModel dx="1280" dy="888" grid="0" gridSize="10" guides="1" tooltips="1" connect="1" arrows="1" fold="1" page="0" pageScale="1" pageWidth="827" pageHeight="569" math="0" shadow="0">
      <root>
        <mxCell id="0" />
        <mxCell id="1" parent="0" />
        <mxCell id="BXp6empQmCxs64IMiVfD-2" value="" style="shape=image;verticalLabelPosition=bottom;verticalAlign=top;aspect=fixed;imageAspect=0;image=data:image/png,iVBORw0KGgoAAAANSUhEUgAABAAAAAKXCAYAAAAcrjhCAAAACXBIWXMAAA7EAAAOxAGVKw4bAAAgAElEQVR4nOzdeXyU5aH3/28mk8lkMknIDiGEHRHZisrmgtTloKK4YUVBaetatduvz3na1zmntcvv6Tm/3zldbN2q9YioWBRxQ1yLuII74MIiiAESQjayTyaTmecP2x4ISWYC93XPcn/ef9XMxXVd9EXmuu7vfS1pvvIJPxcAAAAAAEhl69ySfhrvXgAAAAAAALNc8e4AAAAAAAAwjwAAAAAAAAAHIAAAAAAAAMABCAAAAAAAAHAAAgAAAAAAAByAAAAAAAAAAAcgAAAAAAAAwAEIAAAAAAAAcAACAAAAAAAAHIAAAAAAAAAAByAAAAAAAADAAQgAAAAAAABwAAIAAAAAAAAcgAAAAAAAAAAHIAAAAAAAAMABCAAAAAAAAHAAAgAAAAAAAByAAAAAAAAAAAcgAAAAAAAAwAEIAAAAAAAAcAACAAAAAAAAHIAAAAAAAAAAByAAAAAAAADAAQgAAAAAAABwAAIAAAAAAAAcgAAAAAAAAAAHIAAAAAAAAMABCAAAAAAAAHAAAgAAAAAAAByAAAAAAAAAAAcgAAAAAAAAwAEIAAAAAAAAcAACAAAAAAAAHIAAAAAAAAAAByAAAAAAAADAAQgAAAAAAABwAAIAAAAAAAAcgAAAAAAAAAAHIAAAAAAAAMABCAAAAAAAAHAAAgAAAAAAAByAAAAAAAAAAAcgAAAAAAAAwAEIAAAAAAAAcAACAAAAAAAAHIAAAAAAAAAAByAAAAAAAADAAQgAAAAAAABwAAIAAAAAAAAcgAAAAAAAAAAHIAAAAAAAAMABCAAAAAAAAHAAAgAAAAAAAByAAAAAAAAAAAcgAAAAAAAAwAEIAAAAAAAAcAACAAAAAAAAHIAAAAAAAAAAByAAAAAAAADAAQgAAAAAAABwAAIAAAAAAAAcgAAAAAAAAAAHIAAAAAAAAMABCAAAAAAAAHAAAgAAAAAAAByAAAAAAAAAAAcgAAAAAAAAwAEIAAAAAAAAcAACAAAAAAAAHIAAAAAAAAAAByAAAAAAAADAAQgAAAAAAABwAAIAAAAAAAAcgAAAAAAAAAAHIAAAAAAAAMABCAAAAAAAAHAAAgAAAAAAAByAAAAAAAAAAAcgAAAAAAAAwAEIAAAAAAAAcAACAAAAAAAAHIAAAAAAAAAAByAAAAAAAADAAQgAAAAAAABwAAIAAAAAAAAcgAAAAAAAAAAHIAAAAAAAAMABCAAAAAAAAHAAAgAAAAAAAByAAAAAAAAAAAcgAAAAAAAAwAEIAAAAAAAAcAACAAAAAAAAHIAAAAAAAAAAByAAAAAAAADAAQgAAAAAAABwAAIAAAAAAAAcgAAAAAAAAAAHIAAAAAAAAMABCAAAAAAAAHAAd7w7AAAAjk5+Zli5nojyvWENygzJ44ooOyskpUkFmWF5078q588IK9sT6beuls40tYe+ei8Q6JYaOl1SRGrrcCvQ7VJzMF2NAZeag2lq7OT9AQAAyYgAAACABOFSRMNzwyrLDqnI36kyf1jlOSGVZHcpNyukwb6wirLCKsrqkv9vD/pxEZFaO9yq68hQXYdL+9tdau5w60Bbhva2uFXV6lJda6aq2tz6stmlcNw6CgAADkUAAACAjUqzwhqXH9Twgk6NyQtp+KCAKvK6NTKvS8X+TrnS493DGKRJfl9Ifl9II6IUDXdLta2Z+qIpQ5VN6fryoFefN7n1ZUOmtjd6VNPBagIAAOxCAAAAgAGjc0OaUNyhCUVdGlcY0HFFXRpb0Cm/NxTvrtnKlS6V5nWqNK9TMyVJTYd93hpwa0dDprbVZWh7vVef1mXo09os7WxmigIAgNUYXQEAOAYeV0RTioOaMrhDU0sCmljaqUnFHfJmhuPdtaTg94b0tbKQvlZ2+M8DnS5tqc3SxzWZ+uiAV5v2Z2lTrUfBMNsJAAA4WgQAAAAMwOSiLk0b0qaThgR00pCAji/ukNvd/wF7GDhvZlgnl7fp5PK2f/wsFErTZ7VZeq/aq/eqsvTBfp8212XEsZcAACSXNF/5BGYtAAD0wpse0ayygE4Z1q7pZe2aUd4uv7c73t3CIVoD6dq416d3qnx6c49Pb1d5FehmlQAAAL34BQEAAAB/43FFdGp5h+ZUtOuUijadXNbO2/0kEwql6d0qn96szNb6Sp/e2JvFtgEAAL5CAAAAcLYTSzo1d0SbzhzZqpnl7fJksHc/lQS7XNqw16dXvvBr3e5svX8gM95dAgAgXggAAADOkucJ6+wRbZo3ulVnjWpVcU5XvLsEG9W2ZOjlXX49v9Ovl3ZnqynINYQAAMcgAAAApL5RuSHNH9uic8e06NSKVrnS490jJIJwt/RGpV9rP8/RsztytIurBwEAqY0AAACQmiYWBHXx+GadP7ZVk4a0x7s7SAJbqn16dkeOntyao48bPPHuDgAAViMAAACkjr8/9F8yvlnjSgLx7g6S2PYDXj2xNVert+YSBgAAUgUBAAAguVX4Q7piQrMundCkiYM74t0dpKCP92dp1ad5evTTXFW2sk0AAJC0CAAAAMknzxPWRWNbtXhSo2YPb5O45Q12iEhvfZmth7bk68kdfg4QBAAkGwIAAEDyOKO8Q1dPbtSC8c3yeriuD/ETCLr01NZcPbg5X6/uzYp3dwAAiAUBAAAgsZVkdeuaSQe1dOpBjSjojHd3gCPsbsjUAx8N0rItg3SggysmAAAJiwAAAJCY5g7r0HVfa9D545rldjNUIfGFQmlasz1X935YoHV7WBUAAEg4BAAAgMThzwhr6cRmXTutXmOLedt/zI72bARmBsdsR22m7vugUA98nKvWLs4KAAAkBAIAAED8jc7r0o0nNuqayY3K9nbHuzuJJ1kOOWRGcYS2QLqWbc7X3e/na2dTRry7AwBwNgIAAED8zC4L6PvT63XeuCalOfklabI84B8rB884ImHpue15+t07hXqryhvv7gAAnIkAAABgL5ciWjCmTT+cWadp5e3x7o59nPKQf7QcNBv5YK9Pv9lQpKc+z1aYfxgAAPsQAAAA7OFOi2jxCS36wYxajUn1/f02PtN1BNxq7kxXa9Cl2o50dXRLjQGXwuE0tXd+teS8Oyw1BPo/nb7A2630v63C8GV2yeWKKN8bVla6VJzVLb8nrNzMbmV5Q6b/Sv8jxWcon9dm6rcbi/XQJzkKRQgCAADGEQAAAMzypke0dFKTvjejThX5wXh3x3oGntsCnW592eRRZUu6alszVNOaoT0t6drflq6m9gzVdbhV2+FSTXt89k2U+sIqzgqrKCukPF+XBmd3a1hOt0r9XSr2d6kip1vD84LyZhoIC1Jw1lLZ6NHvNxbpgS15CnQTBAAAjCEAAACY4U2P6LopB/WDWXUqzemKd3esY9HzWU1TprY2ZKiy0aOdB7/639VNHu04mKGmYGo8BOZ5Iho7qEtD8oIaX9Cl0YM6VZH/1f8uzbNoFUgKzWJqWjL027eLdO+mQQQBAAATCAAAANZyp0V0/dQm/Wh2bWo8+B/jc1h9i0cf1GRqW22WttRlaEddlj6tz1BLl7Mf8LLdEU0s6tLYog5NKurSccUdmlbaqcKcY1wlkgKzmpqWDP3nW8X600d5bA0AAFiJAAAAYA2XIloysUU/PuVAci/1P4bnrb2NXr2/P1Mf7c/SB9VebTrgVW2Hk683GLjirLCmlAQ0bUhAUwd36MTBnSrPDxx9hUk8y6ls9Ojf3yzR8o9zOCwQAGAFAgAAwLG7eEyrbptTk7yH+x3Fs1UwmK6NVVl6d1+2Nu716t3qLNXwsG9EaVZYJw/p0IzygE4e2qYZZR3yeLoHXlGSzng+r83UbetLtfpzf7y7AgBIbgQAAICjN7ssoF/PrdFJw9ri3ZWBG+BDf2vArTcrfXpjT7Y27vFp434Py7PjxJ0W0YzBQc0Y1q5Th7XplIp2+Qd6O0ESzn7e25Otn6wr1VtV3nh3BQCQnAgAAAADNzovqF+dUasLxzcl1/32A+hrKOTSxr0+/fULv17/MpsH/gT290DgtOFt+vrIVs0ob5fbHY69gmSaCUWkp7fm6V9fLdbOJk+8ewMASC4EAACA2A3KDOt/z6zTd06ul9udJMPHAJ7Zqw9mau1Ov17a6de6Sp/jD+pLVjkZEc2taNfZo1t17uhWDRk0gK0pSfLPOhRK053vFurXbxepOcjWEwBATAgAAADRuRTR0knNum1OjQr9Bu52t1qsz+0R6b192Vq7I0fPf+7XR3W8UU1FU4uCmjemVeeObdFJQ9sG9O8j0dW3unXb+lI9sCWXgwIBANEQAAAA+jd9cEC/P6dak8s64t2V/sX47BMJS29X+vXE1lw9tT1HVW3pZvuFhFKW3a0F41p0yfhmzapoVVqsL88TfLa0uSpL33txiN7Zz/kAAIA+EQAAAHpX5A3rl3MO6OqpDYm9zz+Gvh360L96W472t/PQD2mwr1sXHzfAMCCRZ00R6cGPCvRv60tUF2BbAADgCAQAAIAjfWtSk3719f3KyzqKq9bsEGMgsbnap798nKeVn+Xyph/9Ksvu1uXHN+sbE5s0eUh7bH8oQWdQje3p+um6wbp/S168uwIASCwEAACA/zGhIKg75lVrekWCXusXw4N/TYtHK7bk6dGP87Slnj39GLhJhUFdMbFJV01qUnFOMPofSNCZ1DuV2br5+SH6tIHfAwCAJAIAAIAkeVwR/WRWvX44qzYxT/eP8uAf7k7T2h25Wr55kNbu8nFdHyzhTovo3FHtWjL5oM4d2yxXepTfjQT81QmF0vSbt4v167cLFQzzewEADkcAAABON3NIQHeft09jiwdwVZodYnhW2dPo0bKP8rVsyyCW+MOosuxuXTPpoK6Z2qhh+cm3KmBHbaZufG6oNlRzSCAAOBgBAAA4lTc9op+fVqubp9fFfhK6HaI9+EekV3bm6t4P8rVmp4+rz2ArlyI6f3S7rpvWqDNHN8f07zVRRMLSHe8U6WevFyvQze8NADgQAQAAONHMIQH96fx9Gl2UQG/9ozyPtHe6tHxTge56P187DmbY0yegH2MHdemmExu1ZEqDfJnh/gsn0GxrZ12mrl/DagAAcCACAABwEo8rop+dWqfvzaxNnLf+UR78q5o8uvvdQt27aZCag7y1ROLJ9UR03ZSDuvHkepXlRdkekCCzrkhY+v2GYv38jSLOBgAA5yAAAACnmFzUqfsv3KfjSwLx7spXojxzbK3J0m83FOnRz/wc6oek4E6L6IrjW/WDmXUaX9rRf+EEmX19dsCrbz09VJvrMuPdFQCAeQQAAJDqXIrolhMP6udza+RxR1mmbIcoz/LvVPr1n28Xac0unz39AQy4YHSbfjizXtMrWvsvmACzsGDIpZ+tK9Uf3x/EmRoAkNoIAAAglQ32dev++VWaM6ol3l2J+uC/bmeu/mtDodZVZtnTH8AGcys69P/MrNfc0c39F0yA2dj6XTn61rNl2t/OjRoAkKIIAAAgVZ0/sk13zd+nwuxQfDsSw4P/r14v4kAypLSZQwL619PqEj4IqG9z64Znh2rtF9nx7QgAwAQCAABINR5XRL88vU63zKiNfkWZaf20/06lX7e9Vqz1e3jjD+eYM6xDt51e2//WgHjPzCLSHzcW699e44BAAEgxBAAAkEpG5XZp2YJ9mja0Pb4d6eeZ4ZNqn362vkRrv2CPP5zr3JHt+vmcAzphSD+/q3GeoX2wz6drnhqqXc1cuwkAKYIAAABSxfkj23TPBXuV7+uOXyf6efCvbMzUL9aX6C+f+TloDNBXB3R+4/hW/XTOAVXkd/ZdMI4ztcb2dN3wTLnWsCUAAFLBL9Izcotvi3cvAABHz6WIbju1Xr89t0pZnjg+KfTxTN/Uka5fvTpY164Zoo8OZCrCwz8gSYooTR/XZerPH+arpT1DJ5Z1yJvRy+9wmuK2nScrI6KFJzTJk+bSa5VZ/P4CQHJbzwoAAEhihd5uLb9gn+aMjnLVmEl9PA+Eu9N03weF+uXrRWrodNnbJyAJFWSG9W+n1enaafVypfcxPYvjrG39Tr+WPDNU9QFuCQCAJMUWAABIVpOLO/X4pZUaOqgrPh3o50Xgup25+ueXS/Rpg8e+/gApYkJBUP/fWQf6vzEgTrO3fQczdNmqCm2uzYxPBwAAx4IAAACS0RXjm3XH+VXyZoTj04E+Hv73NHr045eH6MnP2S8MHKuLxrTp38+q1rD8YO8F4jSDC3S5dPOaMj26NTc+HQAAHC3OAACAZOJSRL86vV6/Pqta7r6WCJvUx17kUMil37xVrMVPDdXH9bz1B6ywtcGj+z7MV3rEpellHXK5evzOx+lsAHd6RAuOa1Z2eppe/ZJzAQAgiXAGAAAkC39GWA/Mr9K5x/WzLNikPub4b3yRo+++MFjbGrkqDDDluPwu3f5P+3XqyJa+C8VhRrd2W66WPlum1i7O+QCAJMAWAABIBiNyuvTYZXs1obTD/sb7ePBvbHfrX14erGWfsAwYsMs1JzTr/z1rv/J9od4LxGFW92lNlhY+Xq7dLYSAAJDgCAAAINFNHxzQyksrVZzTx4TfpD4e/ld/kq/vv1iqugBv/QC7FXnD+t05Nbr4hMbeC8RhZlfb4tblqyr0zn6v/Y0DAGJFAAAAiWzB6Fbdf9Fe+w/76+PBv6Y5Q7euHao1u3z29gfAEc4f1a4/nLtPpbl93ARi8wwv0OXSt54s11M7/fY2DACIFYcAAkCiunVao+66YJ/9h/318fC/YlOBLl01TFvqOOQPSAQ7GjO0bHO+ynxhTRrcy/Ygm8/mc6dHdOmEJrV0uPVOdZa9jQMAYrGeAAAAEoxLEf2fOfX6lzNq7J3A93GieH2rW0tXV+i/3slXoJvTvoFEEuhO09M7/NpS7dPc4W3yeXqsFrL7poA06azRrcpJT9M6bggAgETDLQAAkEg8rojuP69KF09ssrfhPuboa7bm6Ttrh7DXH0gCRd6w7jy3WueP7+P7w+YZ3+qP8/St58oUDBMCAECC+AUzOgBIEP6MsJ64dE9CPPy3dabr1mfLdfnqoTz8A0miLuDS5auH6tZny9XWmX5kAZufwy+e2KQnLt0jv91nmAAA+sQKAABIAIXebj2xcK9OGtpmX6N9PAx8tM+nbz49VNsPcqUXkKzGDerSf1+4T1OHtvdewMbZ33v7snXJY+WqD/QSSgAA7MQKAACItwp/SGsXVcb/4T8i3f5WieY+NJyHfyDJbT+YobkPDdftb5X0/rBv42qAk4a2ae2iSlX443CVKQDgMKwAAIA4qvCH9OKVuzWsIGhfo70d9Nfm1nVPD9MLuzm5G0g1/zSiQ/deuEeF2b08gNs4C9zT4NE5j4xQZavbvkYBAIdiBQAAxMv4/KBeu2aXfQ//fZwGvrEyWzP+PJqHfyBFvbA7SzP+PFrv7Mk+8kMbbwkYVvDVd974fBsDTwDAYQgAACAOxucH9fyVu1WcY9OS2D6W/P/x7RKd80iFqtvYmwuksuq2dJ39cIXu3FAc1y0BxTkhPX/lbkIAAIgTAgAAsFkiPPy3dabr6lXD9b9fLVIowhVdgBOEImn6X+uKdfWq4XG9JYAQAADihwAAAGx0Ummn/nr1F3F9+N9Z59XpD4zUqh29LAcGkPJW7cjW6Q+M1M4675Ef2hkCXLVbJ5V22tMgAEASAQAA2GZ8flBPXP6l8rK67Wmwl4n8C9tzdeqyEdra4LGnDwAS0tYGj05dNkIvbM898kObzgUo9of0+MIvWQkAADYiAAAAG/x92X+vp3BbrbfJe0T67ZulumzVUDUH+eoHIDUHXbps1VD99s3SuJ0LUOxnOwAA2IlZIAAYZuue/14m7IEul65/qlz/+lqhwnZe/g0g4YWVpn99rVDXP1WuQFcv00I7QgDOBAAA2xAAAIBBI3K64vrwX9vi1nkPj9TDn/WyzBcA/ubhz3J13sMjVdviPvJDG0OACr9N56MAgEMRAACAIRX+kJ5f9GXcHv63HcjSGctGaWN1pvn2ASS9jdWZOmPZKG07kHXkhzaFAC8SAgCAUQQAAGBAobdbjy/co2EFNixp7WVivn6XX2csH67dvb3NA4A+7G5x64zlw7V+l//ID20IAYYVBPX4wj0q9Np0WCoAOAwBAABYzJ8R1hML9+qE0g7zjfUyIV+1uUAXPTaMw/4AHJXmoEsXPTZMqzYXHPmhDSHACaUdemLhXvkzwuYbAwCHYXYIABbyuCJ69KK9Omlom/nGepmI/+bNUl29ZrCCYQ77A3D0guE0Xb1msH7zZumRH9rw9XLS0DY9etFeeVy9XU8AADha6Rm5xbfFuxMAkApciuiB86t07vgW8431cs3fj18q079v6OWNHQAcpXVf+tTSkaGzRrUc/r1jQwgwsiCo4/K69OT2HEW4wQQArLCeAAAALPJ/5tRr6YkN5hvqMQ8Od6fp+qeG6c9b8sy3DcBx3qn2anedV/PHtSjt0LWjaTIeBBxf0il/ukuvfOkz2xAAOMN6tgAAgAVundao7846YL6hHpPtQJdL33h8uB7ZmmO+bQCO9cjWHH3j8eEKdPUydTQcAnx31gHdOq3RbCMA4BAEAABwjC4a06p/P7vafEM9JtlNHelauHK4ntvFmzEA5j23y6eFK4erqSP9yA8NhwD/fna1FoxuNdsIADgAAQAAHIPpgwP684K95vfD9vLwf+GjI/TXyl7u6wYAQ/5amaULHx1hfwiQJt1/0V5NHxww2AgApD4CAAA4SiNyurTy0kp5TV9V1cfD/3v7M822CwC9eG9/ZlxCAG9GWCsvrdSInC5zjQBAiiMAAICj4M8I67HL9qo4J2S2oR6T6doWt85ZPpKHfwBx9d7+TM17aKRqW9xHfmgwBCjOCemxy/bKbzp4BYAURQAAAAPkUkQPzK/ShNIOsw318vA/75ER+rjeY7ZdAIjB5jqP5j0ywvYQYEJphx6YXyWXIuYaAYAURQAAAAP0y9Prde5xzWYb6WXZ//wVI7S1gYd/AIlja4On7+0ABp17XLN+eXq9rW0CQCogAACAAbhifLO+b/q6vz72/PPmH0Ai2lzXRwhg+HDU7886oCvGGw5jASDFEAAAQIwmF3fqjvOrjJ90fSgO/AOQDPo8GNDw9+Ud51dpcnGnwUYAILUQAABADAq93Xrc9In/PSbKgS6XFj9RwcM/gKTw3v5MLX6iQoGuHtNLwzcDPH5ppQq93eYaAYAUQgAAAFG4FNHyC/Zp6CCDV0/1mCCHu9O05IkK/bUyy1ybAGCxv1ZmackTFQp39/hSMxgCDB3UpeUX7ONQQACIAQEAAETxs1PrNWd0q7kGek6MI9INT5fruV0+c20CgCHP7fLphqfLdcTzuMEQYM7oVv301AZzDQBAiiAAAIB+nD+yTT86xeChf71MiP/5xTI9sjXHXJsAYNgjW3P045fKjvzAYAjwv06p0fkj28w1AAApgAAAAPowKrdL91yw19yEtZd6f/Nmqe74YJChBgHAPn94f5B+82bpkR8Y/E6954K9GpVrcLsWACQ5AgAA6IXHFdGyBfuU7zN0sFQvE+BVmwv0b68VmmkPAOLg314r1KrNBUd+YCgEyPd1a9mCffK4OA8AAHpDAAAAvfjl6XWaNrTdtvbW7/Lr2rW9vCkDgCR37dpSrd/lP/IDQyHAtKHt+uXpdWYqB4AkRwAAAD2cP7JNt8yoNddAj0nvtgNZumJ1uYJhkxdmA0B8BMNpumJ1ubYdsO9Wk1tm1OpczgMAgCMQAADAIQb7unXX/H227fuvbXHrkpXD1Bzk6xhA6moOunTJymGqbXEf/oHJ8wDm79NgU9u4ACBJMeMEgL9xKaL751epMDtkpoEeE91Al0vfWDVcu3tOiAEgBe1ucesbq4Yr0NVj+mkoBCjMDun++VVyHXEfIQA4FwEAAPzNLSce1JxRLWYq7znBjUjfXVOmjdWZZtoDgAS0sTpT311TpiOeyQ2FAHNGteiWEw+aqRwAkhABAABImlzUqZ/PrTFTeS8T29++VaqHP8s10x4AJLCHP8vVb9+y73rAn8+t0eSiTjOVA0CSIQAA4HgeV0T3X7hPHnfYlvZe2J6rn77Wy7VYAOAQP32tQC9stycE9bjDX33HczUgABAAAMDPTq3T8SUBM5X3eKO1s86rpc+UKWzs5CsASHxhpWnpM2XaWec9/ANDX43HlwT0s1O5GhAACAAAONrMIQF9b6ahK/96TGTbOtN1+apyTvwHAH11M8Dlq8rV1pl++AeGQoDvzazVzCGGwl4ASBLMQgE4ljc9oj+dv09pJr4Jezn076ZnyrW1wWOgMQBITlsbPLrpmXJbDgVMc0l/On+fvOlsBQDgXAQAABzr56fVarRNB0PdubFYq3Zk29IWACSTVTuydefGYlvaGl3UqZ+fZmjVFwAkAQIAAI40c0hAN083tB+0x5urjZXZ+smrRWbaAoAU8JNXi/TOnh4hqaGtADdPr2MrAADHIgAA4DgeV0R3n2fP0v/6NreuerJcoQiH/gFAX0KRNF25ulz1be7DPzC0FeDu87gVAIAzEQAAcJyfzKrX2GIDS/972fd/3dPDVN2W3mtxAMD/qG5L13VPD7PlPICxxZ36yax66ysGgARHAADAUSYUBPXDWfbs/7z97RK9sDvLlrYAIBW8sDtLt79dYktbP5xVqwkFQVvaAoBEQQAAwFHumFctt9vAss8eb6g+2ufTz14vtL4dAEhxP3u9UB/t8x3+QwOrANzuiO6YV219xQCQwAgAADjGtyY1aXpFm/UV95iYtnWm65tPD1UwzL5/ABioYDhN33x6qNo6e2yfMvCVOr2iTd+a1GR9xQCQoAgAADhCkTesX8zdb0tbP35piLYfzLClLQBIRdsPZujHLw058gMDIcAv5u5XkTdsfcUAkIAIAAA4wi/nHFC+r9v6intMRtdszdP9W3KtbwcAHOb+LblaszXPeDv5vm79cogjVO0AACAASURBVM4B4+0AQCIgAACQ8qYPDujqqQ3WV9zzyr9Wt76ztpc3VgCAo/KdtUNU32r+asCrpzZo+uCA9RUDQIIhAACQ0lyK6PfnVBuZMPZ005py1QX4WgUAq9QFXLr5uaFHfmD1d3qa9PtzquU64g5CAEgtzFQBpLSlk5o1uazD+op7TD5XbCrQml2+3ssCAI7aMzuztWJTgfF2Jpd1aOmkZuPtAEA8EQAASFmDMsO6bU6N9RX3ePivac7Qj16x595qAHCiH71SoprmHoerGljZdducGuV6OBAQQOoiAACQsv73zDoV+kPG27l17VAd7OTrFABMOdjp0q1re9kKYLFCf0g/mVVnvB0AiBdmrABS0ui8oL5zcr31Ffd447T6k3yW/gOADdbs8mn1J/mH/9DAKoDvnFyv0XlB6ysGgARAAAAgJf3qjFq53RYf5tRjotnY7tb3Xyy1tg0AQJ++/2KpGtvN3grgdkf0qzNqra0UABIEAQCAlDO7LKALxzcZb+dfXh7Mqf8AYKO6gEv/8vJg4+1cOL5Js8u4FhBA6mHmCiDl/HpujZErog71xhc5WvZJrsWNAACiWfZJrt74IufwHxr4zv/1XAOHyAJAnBEAAEgpF49p1UnD2oy2EQq59N0XzL+BAgD07rsvDFYo1GMaa3EIcNKwNl08ptXaSgEgzggAAKQMlyK2XPv3uw1F2taY0XtZAIBx2xoz9LsNRcbbuW1OjVyy+DwZAIgjAgAAKWPJxBaNKe60ttIeD/97Gj369VuF1rYBABiwX79VqD2NnsN/aPEqgDHFnVoyscXaSgEgjggAAKQEd1pEPz7lgPF2fvzyEAW6Ddw7BQAYkEB3mn788hDj7fz4lANyp7EKAEBqIAAAkBKun9qkinyL723u8Zy/bmeunvw829o2AABH7cnPs7V+V48DWS3OaCvyg7p+qvmbZQDADgQAAJKeNz2iH802e2dzuDtN//xyidE2AAAD96OXShQ2vDLrR7Nr5U1nFQCA5EcAACDpXTfloEpzuqyttMdc8r4PCvVpg6f3sgCAuPm0waP7PuhxNovFeUBpTpeum3LQ2koBIA4IAAAkNW96RD+YVWdtpT0mjk0d6frl6+ZPmwYAHJ1fvl6klo70w39ocQjwg1l1rAIAkPQIAAAktaWTmqx/+9/D//9GiRo6+boEgETV0OnSf7xhdptWaU6Xlk7iLAAAyY0ZLYCk5U6L6HszzL79r2zM1B0fDLK2DQCA5e76cJAqGzMP/6HFqwC+N6OOGwEAJDUCAABJa/EJLdaf/N/DL9aXKBjm2j8ASHSB7jT9Yr3ZVQAV+UEtPqHFaBsAYBIBAICk5FJEP5hh8cn/PZ7zP6n26S+f+a1tAwBgzF8+8+uTat/hP7T6LIAZtXKJVQAAkhMBAICktGBMm8YUdxpt42frSxS2euYIADAmrDT9zPAqgDHFnbpgdJvRNgDAFAIAAEnphzPN7v1/p9KvtV/4ei8LAEhYa7/w6Z3KHqu3LM5yf2T17TMAYBMCAABJZ3ZZQNPK2422cdtrxUbrBwCYY/o7fFp5u2aXBYy2AQAmEAAASDrfn15vbYU93gyt25mr9XuyrG0DAGCb9XuytG5n7uE/tHgVgOVjEQDYgAAAQFIZndel88aZvYf5V68XGa0fAGCe6e/y88Y1aXRel9E2AMBqBAAAksqNJzYqzcpvrl7e/m+o9lrYAAAgHjZUe42uAkhzfTUmAUAyIQAAkDT8GWFdM9nsZOu/NhQarR8AYB/T3+nXTG6UPyNstA0AsBIBAICksXRis7K93dZV2MvJ/+sq2fsPAKliXWWW0RsBsr3duvqEZusqBADDCAAAJI1rp5k9cOk/32bvPwCkmt8YXgVw/YkcBgggeRAAAEgKc4d1aGxxp3UV9ngDtLUmS2t2+ayrHwCQEJ7Zma2tNT1Wd1m4CmBscafmDuuwrkIAMIgAAEBSuO5rDUbr/+0G3v4DQKoy/R1veowCAKsQAABIeCVZ3Tp/nLk9llVNHj36mT96QQBAUnr0M7+qmjzG6j9/XLNKsiw8owYADCEAAJDwrpl0UG53xLoKeyz9vPvdQoUiFq4HBQAklFAkTXe/2+MsAAu/9t3uiK6ZdNC6CgHAEAIAAAlv6VRzk6r2Tpfu3TTIWP0AgMRw76ZBau80N/U1OVYBgFUIAAAktDPKOzSiwNzhf8s3Fag5yNt/AEh1zcE0Ld9UcPgPLfz6H1HQqTPKOQwQQGIjAACQ0K6e3Giu8oh01/v55uoHACSUu97PlyzcUdaT0TELACxAAAAgYeV5wlow3sLD/3q86XllZ652HMywrn4AQELbcTBDr+zMPfyHFq4CWDC+WXmesHUVAoDFCAAAJKyLxrbKa3Aide8HvP0HAKcx+d3v9YR10dhWY/UDwLEiAACQsBZPMreUck+jR2t2+ozVDwBITGt2+rSn0dyVgCbHLgA4VgQAABJShT+k2cPbrKuwxxLPZR/lK2zluk8AQFIIK03LPuqxCsDC4WD28DZV+EPWVQgAFiIAAJCQrpjQbOmE7FDh7jQt28LVfwDgVMu2DFK429Agk/a3MQwAEhABAICEdOmEJusq6zHHW7sjV1Vt6dbVDwBIKlVt6Vq7w9xhgJaOYQBgIQIAAAlnYkFQEwebu0t5+Wbe/gOA05kcCyYO7tDEgqCx+gHgaBEAAEg4F1t59V8PNS0erd3F4X8A4HRrd/lU22LuMECTYxkAHC0CAAAJ5xIrJ009lnSu2JKnUITD/wDA6UKRNK342Nw2AEvHMgCwCAEAgIQysSCocSUBY/U/+nGesboBAMnlEYMHwo4rCbANAEDCIQAAkFBMLpncXO3Tlnpzyz0BAMllS71Hm6vNbQu7aHyLsboB4GgQAABIKOePbbWush5LOf/C238AQA9HjA0WbgOYP5YAAEBiIQAAkDBG5YY0aUi7kbojYWnlZ7nRCwIAHGXlZ7mKhM3UPWlIu0bkhMxUDgBHgQAAQMIw+abk7Uq/qtrSjdUPAEhOVW3pervSb6z+C8exCgBA4iAAAJAwzh1j4SSpxxLOJ7by9h8A0LsjxggLtwFYOrYBwDEiAACQEPI8YZ1aYeH+/0NEwtLqbTlG6gYAJL/V23KMbQM4taJVeR5DlQPAABEAAEgIZ49ok8vQCv23K/3a387yfwBA7/a3m9sG4Er/aowDgERAAAAgIcwbbe70f5b/AwCiMbkNwNIxDgCOAQEAgIRw1ihDk6OI9NR2lv8DAPr31PYcKWKmbmNjHAAMEAEAgLg7saRTxTldRup+b182p/8DAKKqakvXe/uyjdRdnNOlE0s6jdQNAANBAAAg7uZauTeyx5LNtTt4+w8AiM0RY4aF2wAsHesA4CgRAACIuzNHmlsa+fzn5u52BgCkFpNjxtdHsA0AQPwRAACIK48ropnl7Ubqrj6YqY/qPEbqBgCkno/qPKo+mGmk7lnD2uVxGTpkAABiRAAAIK5OLe+QJ8Oi+5F7Lv/fydt/AMDAHDF2WLQNwJMR1qnlHdZUBgBHiQAAQFzNqTDz9l+SXiIAAAAMkMmxw+SYBwCxIAAAEFenVJg5FCkUcmldpc9I3QCA1LWu0qdQyMwU2dSYBwCxIgAAEDfe9IhOLjPzNmTjXp9auiw8vhkA4AgtXWnauNdMgHxyWbu86ZwDACB+CAAAxM3ssg653RZNhHo86//1C5b/AwCOzhFjiEV5stsd0ayygDWVAcBRIAAAEDezh5k7DOn1L7ON1Q0ASG0mx5BThnEOAID4IQAAEDfTDS3/bw24tXE/1/8BAI7Oxv0etQbcRuo2NfYBQCwIAADEzYxyM5OgNyt9CkXY/w8AODqhSJreNHSQrKmxDwBiQQAAIC4mF3XJ7+22prIez/qvVbL8HwBwbN7Y02MssShX9nu7Nbmoy5rKAGCACAAAxMW0webegLxr6PRmAIBzbNxjbiwxOQYCQH8IAADExUllZg4ADAbT2f8PADhmG/d7FOwyM1U2NQYCQDQEAADi4qQhZq5B2liVxf5/AMAxC0XStHGfmVUApsZAAIiGAACA7TyuiI4vtujtR49n/Xf3sf8fAGCNI8YUi/Ll44s75HFFrKkMAAaAAACA7aYUB+V2m5n4bNzrNVIvAMB5TI0pbndEU4qDRuoGgP4QAACw3ZTB5vY+vludZaxuAICzmBxTTI6FANAXAgAAtptaYmbv495Gr2o6+FoDAFijpsOlvY1mVgGYGgsBoD/MlAHYbmJpp5F639+faaReAIBzmRpbTI2FANAfAgAAtptk6ADAj/az/B8AYK0jxhaLDgK0bCwEgAEgAABgq9G5IXkzw0bq/qCaAwABANYyNbZ4M8ManRsyUjcA9IUAAICtJhh847HpAAEAAMBaWwyOLSbHRADojTveHQDgLBOKuozUW9/iUW2KHgB4zpmn6GtTToha7j9+8ycbemNWxbAhWrTwgqjlnnz2ZW3bvsvy9o8bN0oXzT8rprI7d32px598wfI+mDJt6gk6++un9FvmzQ3v64233re87e/etERZWf1v0dm6fZeeevZly9s2xdTfad45p2vKxPFRy3WFunTnPQ8r0Jm4V8ktufIilQ0uiVpu3Wsb9M57m23o0dGp6XCpvsWjwhzr/7+eUNSlZ3ZaXi0A9IkAAICtxheZedvxQU3qHgA4elSFTp19YtRy//EbGzpjWF5uTkx/1zfefl/bDLRfVJgfU/uSNHvmNH269XN9ujU5Zu9lg4uj/t327qvWG7I+AJhx8hTl5uZELfeU5S2bY+rv9N77W/Stqy9Vljf6W+eDB5t1/4OrBtiCPaafNFmXX3Ju1HI1NXW6/c5lNvTo2HxQk6mzDQQA4wq5CQCAvVLzdRmAhDW20KL9jj0OYdpWywGAsJfLlabv3bxUHk9GvLuCFFJX36hlD62OqeyF55+lkcPLDfdo4LK8mbrpuitjKvuHu5erI5D4p+EfMcZYdBDgcYZWxQFAXwgAANhqbIGZid6WOh7CYL+yISVatHB+vLuBFPPcC+u1dVv0lSXp6S7dcuNipaVZ9DRqkauvvEhFhflRy7301ze1actWG3p07EyNMabGRADoCwEAANuUZoXl95o58XhHHSsAEB8XX3iOxo0ZEe9uIIVEIhH99o8PqKsr+tvhcWNH6oJz59rQq9iMGzNC582L3p+6+kbd98BKG3pkDVNjjN8bUmmWmZtxAKA3BAAAbDMu39xhVR+zAgBx8ve3sO709Hh3BSmkqvqAVjy2JqayV11xoQoLBhnuUXQul0u33rRELlf0FQn33LdC7e3Js//903pzY4zJsREAeiIAAGCb4YaWOtY0ZaotlFhLYOEsI0cM08IYDjwDBmLVky/oi917opbz+bJ047evsKFH/bvkwrM1IoYzCV59baM2vLvJhh5Zp6UrTTVNZg6bNTU2AkBvCAAA2GZMnpnl/1sbePuP+Ft4yTxVDCuLdzeQQsLhsH53xzJ1d0dfIj5zxtc0/aTJNvSqd4NLi7To8ujnYTQ1t+hP9z9qQ4+sZ2qsMTU2AkBvCAAA2Gb4IDPLPSsbPUbqBQYiIyND37/5moQ7kA3JbdcXe7T66RdjKnvjtYuU5Y3Plag337BYHk/07+K771uhltZ2G3pkvSPGGot+1U2NjQDQGwIAALapyOu2pqIek66dB+Mz4QV6GjtmhBbMPzPe3UCKeWTlM9pXVRO1XHFRga78xgU29Ohwc+fM1NTJx0ctt2Hjh3rjrfdt6JEZpsYay8ZGAIgBAQAA24zMM3PfMVsAkEiWLFqgIYOL490NpJCurpBuv3OZwuFI1LIXnHemxo4ebkOvvpLj9+nb11wWtVxra5vuum+FDT0yx9RYY2psBIDeEAAAsIVLERX7zRx0VN3EFgAkDo/Ho1tvXMJWAFjq06079fxLr0Utl57u0nduuEoulz1TvGuXXq683Jyo5f703yvV0NhkQ4/MMTXWFPs75VL0cAcArEAAAMAWw3PDchm6JW3HQVYAILFMmnic5p19Wry7gRTzwPJVqq1riFpuzKjhuuC8ucb7M2XSeH39jFlRy3246VOtW7/BeH9MMzXWuNK/GiMBwA4EAABsUZZt5pTjQKdbTUHetMIe1fsPqL29I6aySxdfoqLCfMM9gpN0BDr1x7sfiqnsVVdcaPTfX0aGW9+5/qqo5drbO3T7nQ8a64edmoJpCnS6jdRtaowEgJ4IAADYosjQ8v8vWf4PG1Xuqdaflz0eU1mfL0s337DYcI/gNB989IlefW1j1HJZXq9uvHaRsX4sWjhfZUNKopZb9vBq1dU3GuuH3UyNOabGSADoiQAAgC3K/GaWN1a2GNpXAPQix+/Ti6+8oS0fb4up/EnTJmrunJmGewWn+dP9j+rgweao5WacPEWzpk+1vP2KYWW6+MKzo5bb8vE2rX0x+rkFycTUmGNqjASAnggAANiiPMfM8sbaVvb/wz45OX5J0u13PahAZ2xv7K7/ZmyHpAGxamlt1z33PxpT2eu/fYV8Pq9lbaelpem7Ny2R293/UvhgMKg/3L1ckUhqHW53xJhj0Q40U2MkAPREAADAFiXZFl1z1GOyVUMAABv5/T5J0v6aOj386NMx/pls3XSduaXYcKY33npf77y3OWq5osJ8LbligWXtnnvO6Tpu3Kio5ZaveErV+2stazdRmBpzSnxcBQjAHgQAAGyRm2Xm7cYetgDARr6s/3mT+tSzr2jb9l0x/blTZp1oZCk2nO2Oex5SW1t71HLnzZurcWNGHHN7hQWDdM1VF0ctt237Lj317CvH3F4iMjXm5PpYAQDAHgQAAGwx2Gdmf+P+NgIA2CczM1NpaV8tQ4lEIrr9ruXq6ortzd1N112pnL+tIACs0NDYpPsfXBW1nMuVpptvuEou17FN+2789hXy+bL6LdPV1aXb70q9pf9/d6DNzNTZ1BgJAD0RAACwRVGWmclNUztbAGCvvFz/P/535Z4qrVy1NqY/l5+fp29fs9BUt+BQsR5KOWpkhRbMP/Oo25k1fapmzvha1HIrHlujyj1VR91OomtsN3QLgKExEgB6IgAAYIuiLDP7G+s6zNzJDPTFm5l52H8/vvp5fbF7T0x/9sy5szVt6gkmugUHi/VQykWXz1dJUcGA6/f5vLr+21dELffF7j1a/dSLA64/mZgac0yNkQDQEwEAAFv4DZ0BUNvB1xjslek9/A1gqLtbf7hrubq7Y3uDd/MNVynLmxm9IBCjWA+lzPJ6deN1Vw64/iVXLFBRYX6/ZUKhkH53xzKFursHXH8yMTXmmBojAaAnZs4AjMvPDFt2VVJPNe18jcFe/uwj9/Hv2PmlVj8d25vPkuJCLV1yqdXdgsM99ewr2vH57qjlTj5xkk6dfWLM9R43dqTOmzc3arknn3lZu76IbSVMMjM25qT9bawEAMOYOQMwLtdj5jCojgDL/2G/vg5SW/HYs6qqPhBTHfPOPl0Txo+2sltwuEgkot/dsSymQymv/+Y35PN5o5Zzp6frlhsXy+XqP8Gt3FOlR1Y+E3Nfk52pscfUWAkAhyIAAGBcvtfMW43mTm4AgP1ycvy9/jwY7NLv73hA4XD0SbzLlabv3bxUHg+HWMI6lXuq9PiTL0Qtl5+fF9N1fhddcJZGDC/vt0w4HNHtdz6ori7nLGE3NfaYGisB4FAEAACMy/WY2RPaGuQrDPb7+zWAvfl06049/9JrMdVTNqREixbOt6pbgCRp5ePPxXQK/7yz5+i4sSP7/HzI4GItujz6v89nnntF23Z8MaA+Jrv2LjNjj6mxEgAOxewZgHHedDNvNWo7WAEA+2VHuQf9geWrVFvXEFNdF194jsaNGWFBr4CvhLq79fs7lkU9lNLlSvvb8v7ep4Lfuf4qeTz9X3m3f3+tHnzkyaPua7KqaTcz9pgaKwHgUAQAAIzLNnS6cQcvSxAHnoz+9/92BDr1x7sfiqmu9HSXbrlxsdzphFmwzvbPd+vZtX+NWm7E8HJdfMFZR/z8zDNmaerk4/v9s+FwRH+85yEFg867vs7U2GNqrASAQxEAADDP0A0AjQG+wpCYPvjoE/311bdjKjtyxDAtvORcwz2C0zz4yJOqqamLWu7Kb1ygwaVF//jv3By/vnl19FsqXnj5dW3asvWY+pisjhh7rBrjDI2VAHAoZs8AjCswdLVROMxsCfbL9GbGVO6+B1aqsbEpprILL5mnimFlx9It4DDBYJf+cPfyqIdSejwe3XTdlf/4729fc5nycnP6/TN19Y164KFVlvQzKRk6rN/UWAkAhyIAAGCc16rVzT2e99s7OUEd9vNm9r8v+u9aWtt1z/2PxlQ2IyND37/5mn4PGAQGatOWrXrl1beilps29QTNOfVkTZ18vL5+xqyo5f9w13K1twes6GJSag3E9h0wUJaNlQDQDwIAAAAMefPtD/Tm2+/HVHbsmBFaMP9Mwz2C09z3wEo1NByMWu7b1yw8bCVAX9at36APPvrEiq4BAOKAAACAcT63mWWNUQ65BhLCn+7/i1pb22Iqu2TRAg0ZXGy4R3CS9vaA7rr3kajl8vPzVDakpN8yjY1Nuve//2JV15JWxNAWAFNjJQAcigAAgHE5mWZmSw0B1ksi8TU0Num+Bx6LqazH49GtNy5hKwAsteHdTXrjrfeOuZ6771uhltZ2C3qU3OoMXUFraqwEgEMRAAAAYNgrr76tDzd9GlPZSROP07yzTzPcIzjN3fc9qpaW1qP+82++/b7e2vihhT0CAMQDAQAAADa4/c4H1RGI7eC0pYsvUVFhvuEewUmamlt0b4wrUXpqaWnVXfeusLhHAIB4IAAAAMAGdfWNWvbQ6pjK+nxZuvmGxYZ7BKc52gP87n3gMTU1txjoEQDAbgQAAADY5LkX1uvTrZ/HVPakaRM1d85Mwz2C03x1hV9HzOXfeW+z1q3fYLBHAAA7EQAAAGCTSCSi39+xTMFgMKby13/zcuXl5hjuFZykrr5Rm7Zsjbl8Z2enwd4AAOxGAAAAgI2qqg9oxcpnYyrr92frpusWGe4RnGTC+NGacfLUmMufdsrJOmnaRIM9AgDYiQAAAACbPfH0S9rx+e6Yyp4y60TNmh77AxvQl4wMt26+YbFcroFdM3nTdVcqy5tpqFcAADsRAAAwri1o5k7zAm+3kXoB08LhsP54z0MKhUIxlb/puiuV4/cZ7hVS3WUXzVPFsLIB/7mS4kJd+Y0LDPQoOZkae1o6zYyVAHAoAgAAxrV2mfmqSecbDEls1xd79PiTL8RUNj8/T9++ZqHhHiGVDSsfrIWXzDvqP3/BeWdq7OjhFvYoeZkae9pDDGoAzOObBgCAOFm56jlV7qmKqeyZc2dr2tQTDPcIqSgtLU233LhEGRkZR11HerpLt9y4WC4XU0cASGZ8iwMwLmDVasnI4f/py+yyqGIgPrq6Qrr9zgcVDkeiF5Z08w1XsRcbAzbv7NM0YfyYY65n1MgKXXzBWRb0KLmZGnssGysBoB8EAACMa+g081XjcsX20AQksm07vtAzz70SU9mS4kItXXKp4R4hlRTk52np4kuilnv3/S1qa2uPWu6Ky+drcGmRFV1LWqbGHlNjJQAcim8aAOYZek7P94bNVAzY7MFHnlRNTV1MZeedfbomjB9tuEdIFTddu0g+X1a/Zdra2nX7XQ/qwUeejFqfNzNT37n+Kqu6l5SOGHusGuPItAHYgAAAgHFtHW4j9WalG6kWsF0w2KU/3L08pq0ALleavnfzUnk8R7+fG84wa/pUzZzxtajllj28WgcPNmvti6/FdD3l16ZM0BmnzbCgh8nJ1NhjaqwEgEMRAAAwLhg2c7VRcRYbJpE6Nm3ZqldefSumsmVDSrRo4XzDPUIy8/m8uvHaRVHLbdu+S8+/9LokKRKJ6K57H4kpiLr2mwsdezWlqbEn0M20HIB5fNMAMO5gp5m3Gn4PWwCQWu57YKXq6htjKnvxhedo3JgRZjuEpHXNVReroGBQv2W6u8P6490PKRL5nwf+HTu/1NoXX41af15ujq5devmxdjMpmRp7moMsawNgHgEAAOMaA2a+anIzWQGA1NLeHtA9962Iqezfr2Vzp/PQgMONHzdK886eE7Xc02te1u7KfUf8fPmKp9TY2BT1z3/9jFmaMmn8UfUxmZkae0yNlQBwKL5pABjXHDSzBSDLGzJSLxBPG97dpPVvvBNT2ZEjhmnhJeca7hGSiTs9XbfetEQuV//fuwdq6/XIX57p9bO2tg498NATMbX3neuvctx5FKbGHlNjJQAcigAAgHGNnS5jpxuX+tgGgNRz7/0r1dTcElPZhZfMU8WwsqjlAp2dx9otJIHLLo7t38Pd961QoDPY5+d/Xb9BWz7eFrWesiEluuKy8wfUx2RmbMyJ/G2sBADD+KYBYItWQ6cbF2cRACD1NDW36N77/xJT2YyMDH3/5muUltb/28OOQN8Pe0gN5WWluvzS6CtC3trwgd59f0vUcnfd94i6urqilrv4wrM1omJoTH1MdqbGHFNjJAD0RAAAwBZ1HWaWiBZlsQ0AqWn9G+/qnfc2x1R27JgRWjD/zH7LhMPxC8v6e9P8d253cp1l4HZHf2ALdtkXuqSlpemWG5coI6P/79r29g79KcZwac/e/Xrq2VeilnO73br1piVRQ6hUYGrMMTVGAkBPBAAAbFHXYebrJs8X/e0UkKzu/NPDam/viKnskkULNGRwcZ+ft7a2WdWtAWttbY9aJi/Xb0NPrJGR4ZbPlxW1XCx/b6v801mn6oQJY6OWe/jRp1XfcDDmelc89qwO1NZHLTdu7EjNn3dGzPUmq3yfmVDH1BgJAD3xbQPAFvvbzXzdDM7mJgCkrvqGg/rzssdjKuvxeHTrjX2/he3ujt/vysGDzVHLRLuyLpEU5sfW16am2M5xOFYF+XlauviSqOU+3/Wlnlm7bkB1B4NduufPj8ZUgcKMxAAAIABJREFUdvGiBSoqzB9Q/cmmJNvMShpTYyQA9MS3DQBbNBva3zgshwAAqe3FV96I6TA2SZo08TjNO/u0Xj9ri3ElgQm19Q1RyxQVFiTNlYZlZSUxlauti/73tsIN375C2dm+fst0d4d15z0PKxIZ+Ims77y3OabtKD5flm68dtGA608mpsac5nbOAABgDwIAALY40GbR/sYec9dSP1sAkPpuv+vBmE/xX7r4kl7fwnbG8RDA6v21Ucukp7tUURH99PpEMHJ4eUzlqqoPGO6JNPPkKZo9c1rUcs89v047dn551O3cc9+KmP4Nzjh5imbP+NpRt5PoTI05B9o5AwCAPQgAANiiqtXQLQAEAHCA/TV1evjRp2Mq6/Nl6eYbFh/x83heA7j7y70xlTv+uNGGe2KN48aNilomHI6ocm+V0X74fF7dEMMb94aGg1q+4qljautAXYP+8tiamMreeO0i+XzeY2ovUR0x5lh0xe3eFlYAALAHAQAAW+xtMfN1U8EWADjEU8++om3bd8VU9qRpEzV3zszDfmbngXQ97fpiT0zlpkwab7gnx87lcmnyxOOilttXtV8dHWZDl6uvvCimPff3/PlRdQSOvS9PPvOy9u6rjlouPz9P31py2TG3l4hMjTlVrUzJAdiDbxsAtqhrzTRS7/A87jaHM0QiEd1+1/KY7mWXpOu/ebnycnP+8d+hOB4C2HiwWdUxLIefOuV4eTM9NvTo6E2ZND7qfntJ+mzr50b7MX7cKJ17zhlRy737/ha9tfFDS9oMdXfrjnsejqns2Weeqgnjk2NFx0CYGnNMjZEA0BMBAABbVLWZWd7ozQwpz2PRGkwgwVXuqdLKVWtjKuv3Z+um6w5fHt7cbM+p9L35aMtnUctkeb067ZSTbejN0Tv767NjKvf+h58Y64M7PV233rRELlfvNz78XaCzU3ff+4ilbX/86Q6tW78hajmXK00337BYGRmps7Q9zxORNzNkpO69hrbJAUBPBAAAbPFls0thQy8gxw7iHAA4x+Orn9cXu2NbUn/KrBM1a/rUf/x3MBi/35V339sSU7kF88/s8yrDeCsqzNfsmSdGLRcMBvXhpk+N9eOyi+epYlj0AxMfXfmsDhi4ieD+5avU1hZ9S0nFsDJduuCfLG8/XkyNNeFuaY+hbXIA0BPfNgBsEVaaag0tcRzCNgA4SKi7W3+4a7m6u2O7j/ym665Ujv+rJetW7AM/Wh9u+lQtLa1Ryw2vGKrTTznJhh4N3JJFC5SeHn3qtOHdTcb+vy4bUqLLLz03arndX+7V6v/b3p3HR1Ud/B//zmQymexkIyRARBAEFKSioqIi7ohaFXdLsVqr1tpW+yz1+dW9rT6/+rTutmqtW61LUVyxaosoiqBSZROBsIQkkJ3sk8ksvz8sv0dCQibhnjvL/bz/8pW5nHNUMuec7z3La+8aacPOnS166tkFUT17wZxZGlFabKQddjPV19S1pSms+Ay9ACQfAgAAttncbOaao/H5rACAs2wo36qXX307qmfz8nJ1xbzzJSmqt7amBEMhvff+sqievfy758XdKfITx4/R8ccd2f+Dkt5+d4mRNrhcLl139Vylpu79uzQcjuiB3z+jcDi6kGgwFr79vjZs3NLvc6mpqfrR1XPjdlXHQJjqa0z1jQDQGwIAALapaE6xpqAeW/7HDIndW00gVv7y4utR3zN/4syjdeiUg+Tviu1qmdcWLlI43P+ZHfn5Q/Tja75rQ4uik5WVoZ/95Ip+99xL0qbNFfpi1Toj7Tj5hOk6+KBx/T73t3c/0FcbNhtpwy6RSEQPP/psVP8/D5o4ViefMN1oe+xgqq+xrG8EgCgQAACwzdadZt7oleWxBQDOEwh0694Hn4hqAiZJ1151qbKzMg23au+276jT0mUronp2+lFTdfH5ZxhuUf88KSn6r3+7WkOLCqJ6/rkX3zDSjvy8XH1v7rn9PtfU1Kwn//ySkTb0tKF8qxa+/V5Uz35v7rnKz8s12yDD9uhrLDp/1lTfCAC9IQAAYJuNzWZOOWYLAJxq7bpyvfXO+1E9O7SoQGNGlxluUf+eenaBgsHoTlK/5MIzdcG5/e93N8WX5tV//cc1mnTwgVE9v2btBi1d/rmRtlz5vQuUFUWA88cnX1R7e6eRNvTm6b+8op07W/p9LisrU9+/7HwbWmSOqb7GVN8IAL0hAABgm62NZg4BLM7tUnYqVwHCmZ54er7qDJz0bkr19lq99uY/on5+7iVn68c//K68Xnv3SRcV5evXt/1Mh0+dFNXz3d3desjiK/d2OeKwyTrm6P4PRvznF2u1eMknRtrQl/b2Tv3p6flRPXvs9MOj/u8Zb7JTIyrONbMFwFTfCAC9IQAAYJv1TV5jZU8sYBUAnKnT36UHfv9MrJsxIM8896qqqmuifv7kE6brd//9Xzp44liDrfqay+XSaScfqwf+52aNPWBU1H/u2edfV8W2asvbk+5L0zVXXtLvc4FAQA8bCiD684/FH2v1mvVRPXvNlZco3Zd4E16TfYzJvhEAeiIAAGCbmk632vxmljqOLbRvySsQb1Z8vkb/eG9prJsRtUCgW7+55zEFAtGf31E2slR33v5vuuW/rjMSBLjdbh03/TDd/z836dqrvqOMjPSo/+wnn63S/Ff+ZnmbJOm7l5ytwoK8fp97Yf5Cbd9RZ6QN0Xjo0T9HtbWjqDBfl150lg0tspapPqbN71FNJ8NxAPZh0xEAW21oTNO3SqPb/zsQkwpZAXDNlRfHugm7efjRv8S6CY7y2BMv6FuHTFReghy0Vr6pQvf//mn97MdXDOjPHXbowTrs0INVWbVDH3z0qT79bJU2bqoY1JV3npQUHThufx1x2CE6/tgjlJ8/ZMBllG+u0N33PqZIxPptSAeO3V+nnzaz3+cqq7Zr/gIzAUS0tlXu0ILX3tV555zW77NnzDpB7y/5ROujuEYwXpjqYzaw/B+AzQgAANjqq/pUfavUgoIikr5xI9eBRawAOP3U42PdhN0QANirta1Df3j8Of38Z1fFuilRe+/95SrIz9Nl3+n/dPueRgwfpovPP0MXn3+Gurq6tGnzNlVUbldtbYMam3aqvcOvtrb2//98RrpPmZkZys8fomHFhdpvZKlG7z9SXu/gl19Xb6/RHXc+qI4O/6DL6IsnJUXXXTO336sHw+GIHvzDnxUMhSxvw0A9/9c3dNwxh/d7Y0JKils/uvo7+ul//HpQwU0s7NHHWJT3fFVv79kWAEAAAMBW6xvMXHd0aLGZw5mARPLh0hX6cOlnmn7U1Fg3JWq73lwPJgTYJS0tTRPGH6AJ4w+wqln9Kt9codt+/YCampqNlD/n7FO1X9nwfp9btHipVq/dYKQNA+XvCuiRx5/XL/7zh/0+u/+okTrnzJM0/5W3bWjZvjPVx5jqEwGgL2w6AmCrtYbedhRkB1ScnhhvkgCTHnn8+d3efCeC+Qv+pvseeirq6wFjbfmnX+jGm+42NvkvLRmqC887vd/nmlta9ccnXzTShsFa9skXWv7pyqieveTCMzWsuNBwi/ZdcXpYBdnRn1cxEKb6RADoCwEAAFutrYv+YK2BmjTU+mW4QKJpbGrWY0/E16QwGu/840P9/Ka7VVNTH+um9Km7u1t/fPJF/fK/H1an38wbYZfLpeuunqvU1P4nhk88/ZJa2zqMtGNfPPLH5+Tv6v+/j9fr1bVXfceGFu0bk33L6roMY2UDQG8IAADYqrzFI3+Xma+eQ0sIAABJ+vt7S/XPL9bGuhkD9tWGzfrxv9+hN//2nsJh6w/V2xer16zXT/79l1rw2rtGDvzb5eQTpuvgg8ZF1Z53F31krB37oqauQS/MfzOqZ6dMnqCZM4403KJ9Y6pv6fCnaHNLipGyAaAvBAAAbLfKqlUAPcbgU4ZxECCwy30PPaVOf+KFYh0dfj386F90/X/+Sp+uWB3r5mhrRZXuvPv3uvGW/9G2yh1G68rPy9X35vZ/FkJ3d7ce/MMzRtuyr15+5R1VVm2P6tkr5p2nnOwswy0aPFN9y5p69v8DsB8BAADbra4xc+3R1GEcBAjsUt/QpCefeTnWzRi0TZu36bZf36+f/sevtGjxxwoEzOzB7k0oFNYnn63Srb+8Tz+64XZ99PE/ban3+5edr6yszH6fm//K26qsrrGhRYMXDIX00CPPRvVsbk62rph3nuEWDd7hPfsWixaAmOoLAWBvuAUAgO0+rzXz1mNEnl/F6WHVdJJtApL05t8W67hjDtdEG0/Ht1r5pgr99v4/6eFHn9X0o6bq8KmTdMik8crMtHbvdFdXl1at2aDln36hj5b9U83NrZaW35/Dp07SsdMP7/e56u21US+vj7VVa9brvfeX6fjjpvX77AnHH6VF7y/T5yu/tKFl0StOD6s0z8xKGlN9IQDsjStjxMT42mQHIOkdXtyl975Xbk1hPa7IvvD5/fT6pv7foCWS9HSf0ryJd1L0zkFMoDwpKcrK6n9i197Rqe5u60+MT031KDNj71tU/P4u+bvsexu9r7zeVGWkRzfRSJR/N7fbrf3KSjV+3GiN2m+4SkuKVTKsSHlDcuT1evf6Z7u7u9XY1Kza2gZVba/Rlq1V2li+VeWbKhQMhWz6N9hTtL/nXYFudXYmztaOaH6ndonHf7czRrfr+Qu37v5Di0bOx/9pjD5hFQAAe93OCgAAtvuizqtg0CWPx/r8cdoIf9IFAJ2d/rgbFJsSDIUGFRxYpbs7GNP6TQgEuhUIdMe6GZYKh8PavKVSm7dU7vFZerpPvjSvcnJ231Pe1touf1dA7R3xeVZIsv6eJ/rv1LQRZv6fBIMufVG397AKAEwgAABgu0DYpS/r0jWpxILrqyLabRXA4cPbJRXse7kAEtKuiXTTzpZYNwVJ4Os+5Rssyq2/rEtXIOzq/0EAsBgbZQHExKfbzex9nFbaKY+LnU0AgH3jcUU0bbgFQXUvTPWBANAfAgAAMfFptUVXAfbg9YY0bVj872EGAMS3acMC8qaGjZRtqg8EgP4QAACIiRU7rD3B+5umjTTzxgYA4Bwm+xKTfSAA7A0BAICYWFmfqjZ/ijWF9Vjxf8zI9t6fAwAgSnv0JRbtLmvzp2hlfeLd7AIgORAAAIiZZZVm3oBML+vgHAAAwKB5XBEdW2YmTDbV9wFANAgAAMTM8mozg6AsX5BzAAAAgzZtWEAZvpCRsj+uSq6ragEkFgIAADHz4TZzb0GO3Y9tAACAwTHZhyyt5ABAALFDAAAgZpZW+xQMWnQPco8V/yfs32ZNuQAAx9mjD7FoV1kw6NLSaq4ABBA7BAAAYsYfcukTQ9sApo3oUHYq5wAAAAYmOzWiaSPM3ADwSXWG/CGLgm8AGAQCAAAx9WGFmb2QHk9YM8u4DhAAMDAzyzrk8YSNlG2qzwOAaBEAAIipxRXmzgE4eQzbAAAAA2Oy7zDZ5wFANAgAAMTUksp0Bbot+irqseJ/FgEAAGCA9ug7LNpNFuh2awkHAAKIMQIAADEVCLv0saE7kUuGdGlKIdcBAgCiM6UwoJIhXUbKXrotQ4Ew+/8BxBYBAICY+/vmLGNln3YAqwAAANEx2Wf8Y4u5vg4AokUAACDmFm2x8FCkntsAxrZaVzYAIKmdMa5Hn2HhZTKW9nUAMEgEAABi7rPaNNW1phop+7Dh7SrNDBkpGwCQPEZkhfSt0nYjZde1puqz2jQjZQPAQBAAAIgL724ytDTSJX275xsdAAB6OHNsq2Roi76xPg4ABogAAEBceKvcwsFRjyWb545vsa5sAEBSMtlXWNrHAcA+IAAAEBfe2ZKpsKGV+keVtWlYBtsAAAC9G5YR0lFlZq7/C4e+7uMAIB4QAACIC80Bt5ZUmHlD4nJL5xzINgAAQO/OObBVLkOj4iUVWWoOMOQGEB/4NgIQNxZuzLauMLYBAACiZLKPsLRvA4B9RAAAIG68vsHcIOmosjZuAwAA7KE009zyf0l6dT0BAID4QQAAIG5savFo1fYMI2W73NIFE1gFAADY3QUTWowt/1+1PUNbWj1mCgeAQSAAABBXLF0F0OMNzoUHN1tXNgAgKVw8qUffYOHbf5Mr2wBgMAgAAMSVBevMDZYml3RoUkHAWPkAgMQyqSCgg4d1GCvfZJ8GAINBAAAgrqxu9Gp9rc9Y+RexCgAA8C+XTNpprOz1tT6tbvQaKx8ABoMAAEDceWldjnWF9VjKefGkZnlcFq7vBAAkJI8roosP7nE2jIXdg6V9GQBYhAAAQNx52eCgqTg7oFmjzS33BAAkhlmjO1SUbW5bmMm+DAAGiwAAQNxZ3ejV6h3pxsqfO9nckk8AQGIw2Res3pHO8n8AcYkAAEBcmr8217rCeizpnDW2RaWZIevKBwAklNLMkGaNNbf839I+DAAsRAAAIC49tzbH0sHYN7lTIppn8OAnAEB8mzdpp9wphjqZyL/6MACIQwQAAOJSRZtHH23NtK7AHuO8eVOa5DaVMAAA4pZbEc2b0rT7Dy3sDj7amqmKNo91BQKAhQgAAMStZ1blGSt7ZF5As8dwGCAAOM3sMR0amWfu8D+TfRcA7CsCAABxa8GGLPkD5r6mrjy0qf+HAABJxeR3vz/g1vz1WcbKB4B9RQAAIG41B9x6xcprlHos8TxxTIvGDum2rnwAQFwbO6RbJ44xd/jfy1/mqq2b4TWA+MU3FIC49tRKg0spXdI1U1kFAABOcc3UJsllrvxnVg0xVzgAWIAAAEBce68yXVsa06wrsMebnrmHNCrHy2GAAJDscrwRzT2kcfcfWvj1v6UxTe9VpltXIAAYQAAAIO498bm5NyoZaWFdeQhXAgJAsrvykJ3KSAsbK99kXwUAViEAABD3nlw1RMGghWs2e7zxufrwBnlcrAIAgGTlcUV09eENxsoPBl16kuX/ABIAAQCAuFfbmaI31lt4GGAPpbkBXTShzVj5AIDYumhCm0pze1z9Z2Hu+8b6HNV2plhXIAAYQgAAICE8+s98o+Vff2S90fIBALFj+jvedB8FAFYhAACQEBZtS9eGOnOHAY4v7tSZY9qtKx8AEBfOHNOu8cWdu//Qwrf/G+rStGgbh/8BSAwEAAASxmMrCoyWf8OR5vaHAgBiw/R3+yOfme2bAMBKBAAAEsYTq3PU7rdwj2WPN0BHlLVpZlln788CABLOift16oiyHme8WPj2v92foqfWmDujBgCsRgAAIGG0dbv15Mo8o3X8jFUAAJA0rp9m9jv9yZV5autmOA0gcfCNBSCh/P6zPEWsvMa5x5ugmWNadGSJ38IKAACxcGSJXzPHtOz+Qwvf/kfCX/dJAJBICAAAJJTy5lS9uT7XaB2/OJYbAQAg0Zn+Ln9zfa7Km1ON1gEAViMAAJBw7llu8YFLvawCmDGSswAAIFHNLOs0+vZfMtAXAYANCAAAJJyPqn1aUZlhtI5bj6szWj4AwJybjzX7Hb6iMkMfVfuM1gEAJhAAAEhIv/240NoCe7kRYNb+HdbWAQAwbtb+HUZP/peku5da3AcBgE0IAAAkpFc2ZmpjXZrROm6bUSu31aNGAIAxbkV024xao3VsrEvTa+WZRusAAFMIAAAkpLBc+t2yImsL7THXP6ikQxdOaOv9WQBA3LlwQpsOKumxesviHPe3y4oUlsvaQgHAJgQAABLWM2uyVdHkNVrHzTNq5UthFQAAxDtfSkQ3G377X9Hk1Z/XZButAwBMIgAAkLCCEZfuXWb2LICyvC5d862d1tYBALDcNd/aqbK8rt1/aHF+e++yQgUjvP0HkLgIAAAktCdW5aqm1ew9zP9+TK3y08JG6wAADF5+Wlj/eYzZt/81ral6YlWu0ToAwDQCAAAJzR9y6XdWn8bc441RbnpINx1bb20dAADL3HRsvbLTQ7v/0OK3/79bWih/iLf/ABIbAQCAhPfoF0OsXwXQY+D4/UMbNDE/YG0dAIB9NjE/oO8f2mC0jprWVD36xRCjdQCAHQgAACQ8f8iluz+y+EaAHtwpEf3fk8wuLwUADNzdJ9fK3fOwVovf/v/fD4t4+w8gKRAAAEgKj3yea/2NAD0GkDPHtOjsA9qtrQMAMGhnH9CuGaNbdv+hxZP/iiavHvuCvf8AkgMBAICkEIy4dNeHQ43Xc9dJ27kWEADigC8lortO2m68nrs+HMrJ/wCSBgEAgKTx9OpsbaxLs7bQHnP9kXkB3Xi02b2mAID+3Xh0g0bm9TibxeJ8dmNdmp5enW1toQAQQwQAAJJGWC7durjYeD0/PbJeB+Z1G68HANC7A/O69dMjzd/OcuviYoXF238AyYMAAEBSeXljlj7dlmltoT3eKHk8Yd136g5r6wAARO2+U3fI4wnv/kOL3/5/ui1TL2/MsrZQAIgxAgAASefGRcWWDwR7lnfM/q2ad1BL788CAIyZd1CLjtm/dfcfGvjOv3GR+RVlAGA3AgAASeejap9eXWf+xOZfnbRDhb5w/w8CACxR6AvrVyeZX4H16rpcfVTtM14PANiNAABAUvrFe0UKBi3et9njDVNeRlD3nFJjbR0AgD7dc0qN8jKCu//Q4rf/waBLv3ivyNpCASBOEAAASErlzV499EmB9QX3GGiec1CTZo/usL4eAMBuZo/u0DkHNRmv58FPClXe7DVeDwDEAgEAgKR159JCNbR5jNdz/6wqDUljKwAAmDIkLaz7Z1Xt+YHFb/8b2jy6a6mB8BgA4gQBAICk1RJwm7kWsMeAszinW3efWGt9PQAASdLdJ9aqOKfH9atWH/ynr6/9awkwPAaQvPiGA5DUnliVo5XV6cbrufiQRrYCAIABZ45p18WHNBqvZ2V1up5YlWO8HgCIJQIAAEktLJd+8naJ8WsBJenh2ZXcCgAAFir0hfXg6eaX/isi/eTtEoVl8eGxABBnCAAAJL3lO3x66vN86wvuMQAtyArqoVnbra8HABzqoVnbVZBl9tR/SXrq83wt38G1fwCSHwEAAEe4afFQNXWkWF9wj4Ho7PHNunxSi/X1AIDDXD6pRbPHNxuvp6kjRTctHmq8HgCIBwQAAByh3u/WzYuG2VLXXSdv17gh3f0/CADo1bgh3brr5F5WVBl4+3/zomGq9zMkBuAMfNsBcIzHV+VqeUWm9QX3GJBmpoX0p7Oq5HUbGKkCQJLzuiP601lVykwL7f6Bga/U5RWZenxVrvUFA0CcIgAA4CjXvlWiYNDAIU89BqZThnfotmMbrK8HAJLcbcc2aMrwHreqGJj8B4MuXftWifUFA0AcIwAA4ChrG7367dIiW+r68VG1OnVUpy11AUAymLV/h358VK0tdf12aZHWNnptqQsA4gUBAADHuXNpgTbUpVlfcM83VC7p0bO2qSQz1OvjAID/VZIZ0h/OrNQeN/EZePu/oS5Ndy4tsL5gAIhzBAAAHCcQdunqN4crEjZQeM+rATODevacSnlcnAcAAH3xuCJ69pxKFWSav/IvEpaufnO4AmED28EAIM4RAABwpI+3+/Tg8kIzhfcYsB4xsl13Hl9vpi4ASAJ3Hl+vI0a221LXg8sL9fF2ny11AUC8IQAA4Fi3fFCk8noDWwF68cNpdZoz1p7BLQAkkjlj2/XDaXV7fmDg7X95fZpu+cCec2AAIB4RAABwLH/IpR+8Yc9WALmkh8+s1Pj8gIHKACAxjc8P6GGb9v1HwtIP3hguf4il/wCciwAAgKN9vN2nez829DaoxwA2My2kF+ZUKsdrInEAgMSS4w3rhTmVykzrcVCqoSNT7v24iKX/AByPAACA4922pFBf1hoaFPYYyI4p9OuJM6vlNjXCBYAE4FZET5xZrTGF/t0/MPTV+GWtT7ctMXTuCwAkEAIAAI4XCLt0+avDFQja85V46rgW3X5coy11AUA8uv24Rp06rsWWugJB99ff8Zz6DwAEAAAgSSvr03TLomIzhffyRuv6o2t06QR7Br8AEE8undCi64+u2fMDQ2//b1lUrJU2HfgKAPGOAAAA/uWBz4Zo8aZsM4X3cijgfbOrNa2ky0x9ABCHppV06b7Z1bYc+idJizdl64HPhpgpHAASEAEAAPxLWC5d/nqpGto9ZiroMcD1pYb1/JytGpUdNFMfAMSRUdlBPT9nq3ypPQ5CNTT5b2j36PLXSxXeI20AAOciAACAb9jRkaKrXh9ubEDas9yi7KBeumAbNwMASGo53rBeumCbinoGnga/a696fbh2dKQYqgAAEhMBAAD0sHBzph5YZuhqwF4cOLRTz51TKa+bmwEAJB+vO6LnzqnUgUM7bavzgWVFWrg507b6ACBREAAAQC9uer9QK6oyzBTeyzx/xug2PTarl0OxACDBPTarRjNGt+35gaHMc0VVhm56nyv/AKA3BAAA0ItA2KV5rwxXk6nlo70MfOdMbtQdxzWYqQ8AYuCO4xo0Z3Iv154amvw3daRo3itc+QcAfSEAAIA+bGpJ1VWvjbDtPABJumF6ja6butNQhQBgn+um7tQN0+277k8R6arXRmhTS6qhCgAg8REAAMBevLE5U7/5sNhcBb0MhO86uVqXjG81VycAGHbJ+FbddXL1nh8YPOrkNx8W6w32/QPAXhEAAEA/bl+Sr8XlWeYq6Dkgdkl/OKtSp4/uMFcnABhy+ugO/eGsSu1x+57Byf/i8izdviTfXAUAkCQIAACgH2G5NPe14araaXBZaY+BsTsloqfPrdAJZfadmg0A++qEsk49fW6F3Ck9vtQMTv6rdqZq7mvDFd4jcQAA9EQAAABRaPCn6Lz5ZfJ3G/za7DFA9qWG9cy5FTpsWJe5OgHAIocN69KzcyrkSw3v/oHByb+/263z5pepwW/owFYASDIEAAAQpZV1abr2jVKjg9meZeemh/TqRVsIAQDEtcOGdenVi7Yo2xfa/QPD35fXvlGqlXVpBisBgORCAAAAA/Dcuhzds3So2Ur6CAEmFwbM1gsAgzDGOWoCAAAZo0lEQVS5MKBXL9qi3PRQ/w9b6J6lQ/Xcuhxb6wSAREcAAAADdNP7BVr4lb2Dzl0hwPh8QgAA8WN8/l4m/wbf/i/8Kkc3vV9grgIASFIEAAAwQGG5dNnrpVpbk26ukl4GzkXZQb11CSsBAMSHyUUBvXXJFhVlB/f80ODkf21Nui57vZRD/wBgEAgAAGAQ2rrdOv+vI1TX6jFXSV8hwHc2cyYAgJg6bFiX3rp0s+2T/7pWj+a8OFJtJg9kBYAkxrcnAAzSltZUXWDzzQASBwMCiK1dB/7Zvezf3+3WBfPLVNFmMHgFgCRHAAAA+2D5Dp8uXzDC1psBpP8NAU4o6zRYMQDs7oSyzphM/hWRLl8wQst3+AxWAgDJjwAAAPbRK+VZ+vk7JWYr6SMEePGCrTp9dIfZugFA0umjO/TiBVvtn/xL+vk7JXqlPMtsJQDgAAQAAGCB+1fk6T6brweUJF9qWM+ft1WXjG81WzcAR7tkfKueP2+rfKnhPT80PPm/b+lQ3b8iz2wlAOAQKak5RbfGuhEAkAwWbU3XhCHdmjDUhr353zj82uWWzhrfotbOVC3fzvJYANa6bupO3Te7Sq7eXhsZnvy/vDpX171TrAgn/gOAFRazAgAALBKWS5e/WapFdixT7Tnodkl3nVKtO45rMF83AMe447gG3XVKtfaYf0dkfPK/qDxLl7/JdX8AYCUCAACwUCDs0kULRujTqkzzlfUy+L5heo2emr1DXrfhkTmApOZ1R/TU7B26YXrNnh/a8PXyaVWmLlowQoEwk38AsBIBAABYrK3brXNfHKE1NenmK+tlID5ncqMWnL9NOd5e9uoCQD9yvGEtOH+b5kxu3PNDGyb/a2rSde6LI9Rm8opVAHAovlkBwIAGf4rOe3GktjV6zVfWy4B8xug2vTd3q0ZlB83XDyBpjMoO6r25WzVjdNueH9ow+d/W6NV5L45Ugz/FfGUA4EAEAABgSEWbR6c8O0p1rR7zlfUyMD9waKfem7dJ00psOJQQQMKbVtKl9y7bpAOHdu75oQ2T/7rWr78zK9ps+M4EAIciAAAAgyraPDothiFAUXZQb166WZdOaDFfP4CEdemEFr156WYVZfWyasimyf9pTP4BwDgCAAAwbF2TN6YhgC81rEe+XalfHtcgtx0jeQAJw62Ifnlcgx75dqV8qb2cG2Lj5H9dkw1bpgDA4QgAAMAGu0KAhvbYhABySddPr9Ff51RxOCAASV8f9vfSnCpdP71mz2v+JCb/AJCECAAAwCbrmrw694X9VGfHEtc+7ug+dVyLlszbovH5AfNtABC3xucHtGTeFp08rpftQX18f1itrtWjs17Yj8k/ANiIAAAAbPRpTZpO+7NN2wGkXgfxYwr9ev+yzZoztt2eNgCIK3PGtuv9yzZrTKF/zw9t2iW0683/yro0eyoEAEgiAAAA29l6JoDU64A+My2kp+Zs1W9m1snj4lwAwAk8roh+M7NOT83Zqsy00J4P2Dz5580/ANiPAAAAYiAeQgC5pB8eWad3Lq1QSWYvkwEASaMkM6R3Lq3QD4+si9l+f4nJPwDEGgEAAMTIuiavjntytLY12jQQ7mNf7xEj27XsinKdOqqXu78BJLxZ+3do2RXlOmJkL9t+bNrvL0nbGr/+zmPyDwCxQwAAADFU0ebRKc+O0pqadPsq7WWwX5AZ1EsXbdadM+rldbMlAEgGXndEd86o118v3KKCzOCeD9j4q76mJl2nPDtKFXYcggoA6JMrY8RERnoAEGMFvpBeOr9Shw238WC+3pYBS/q8KkPfe3W41u9Mta8tACw1bki3/nRWlaYM7+j9ARtHf59WZercF0eowZ9iX6UAgN7czgoAAIgDDf4UzX5upBaVZ9lXaR9Lf6cM79CSyzfp8km9XA8GIO5dPqlFSy7fFBeT/0XlWZr93Egm/wAQJwgAACBOtHW7de78kXp5da69FfdxS8D9Z1TqhXOqVOgL29seAINS6AvrhXOqdP8ZlX2f8m/j5P/l1bk6d/5ItXUz3ASAeJGSmlN0a6wbAQD4Wiji0oL12cpKcWtabwd2mdTLloBxhV367qSd2tjg03oO7gLi1plj2vXqRVt1SGkfh3navOHzvqVDdd07xQpG+thrBACIhcUEAAAQZyJy6e9bM9Ta4dFJo9v63KtvTI/6MrxhnXdQs0bnhPR+RYb8IQb0QLwYkhbWA6fW6LYTdyjD28tqHbtPeopIP3+nRL/+uEAR27+8AAD9WMwhgAAQx749pk2Pn10pX6rNy/D7GLfXtKTquoXD9camDHvbA2APs0d36P5ZVSrO6e79AZtHeP5uty5fMEKv2HmWCQBgIG4nAACAOHfEML9emFOhouxervEyaS8v715ek6efvl2sej97ewG7FfrCuueUGp1zUFPfD9k8uqtr9eiC+WVavsNnb8UAgIEgAACARDAqu1svnlepicV97O81qY8goKnDo//z7jA9uSbH3vYADjbvoBb96qQdysvoIxCMwahubU265rw4UhVtHvsrBwAMBAEAACSKrNSwnjijWrMOjMH1fHtZDbBkc7Z+/Ldh+qop1b72AA5zYF637jt1h47Zv7Xvh2Iwolv4VY4ue72Uk/4BIDHcziGAAJAgAmGX/rouWxlut44c0W7/4YBSr3WW5QV0xZSdSk+RPq5K59RvwEK+lIhuOqZBfzyrSqMKunp/KBavciLSPUuH6od/K1ZXmMk/ACQIDgEEgER00fgWPTi72v7DAXfpY46/rcmrn79bogUbM+1tD5CEzj6gXXedtF0j8wJ9PxSDUZy/261r3yjVc+vY/gMACYYtAACQqCYXdemvcyo0fEgfJ4CbtpcX/YvKc/Qf7w7V2kavfe0BksTE/IDuPrlWM0bvZbtPjEZvVTtTdd78Mq2sS4tNAwAA+4IAAAASWYEvpKfPrNKMMW2xa0QfQUA45NJjKwp0xweFauxiiTDQn/y0sG46tl7fP7RB7pQ+hmcxHLUtLs/S3NeGq8GfErtGAAD2BWcAAEAi6wy69Ze1OUpViqaPjNG5AFKv9brc0tThHbpiSpPCwRR9XuPjfACgF76UiK6bulN/mbNNR+/XLldfeVmsJv8R6TcfFuuqt4apI0iYBwAJjDMAACBZzN6/XX84s1J5GaHYNWIv8/uKpjTdvnionv8yS+GYJRVA/HArogsntOnmGbUqy+vjgD8ppm/9mzpSdNVrI/TGZs71AIAkwBYAAEgmo3O69eS3q3To8I7YNmQv8/s12zN0y+KhWrg5w772AHFm1v4dum1GrQ4q2cvvaoxHaCuqMjTvleHa1MIVnwCQJAgAACDZeN0R3XFcvX40rS52WwJ22Uv9yyuydOv7RVq8Ld2+9gAxNrOsUzcfW6cjyvo5tyOWo7OI9MCyIt30fqEC4Vh/iQAALEQAAADJatb+7frDGVUqyAzGtiH9zB8Wlefolx8U6uPtPnvaA8TAkSV+/eLYes0cs5eT/aWYv/VvaPfoqteHayFL/gEgGREAAEAyG5YR0uNnVGvG6NZYNyWqIOB3ywr0962sCEDyOHG/Tl0/rSHuJ/6StHhTti5/vVQ7OjjlHwCSFAEAACQ7tyL60dSdum1mjbyecKyb028QsLwiS7/9uECvlfMGEonrzDHtuuHIhvhe6v8vgaBbtywq1gOfDeGATgBIbgQAAOAUkwu79PhZVZow1B/rpnytn3nGupp0/e7jQj33ZRbXByIheFwRXTShTdcfWa/xxZ17fzhORl9f1vp0+avDtbI+LdZNAQCYRwAAAE7idUd0yzH1+smRdX3fNW63fub21c1e/f6TAj36xRC1BAgCEH9yvBFdechOXX14g0pzA3t/OE5GXZGwdO/HRbptCQf9AYCDEAAAgBMdWeLXI7OrNKZwL3eP262fOUhHl1tPf5Gvhz/L04adXEuG2Bs7pFvXTG3S3EMalZHWz/aaOBptlden6QdvDOfgTQBwHgIAAHAqX0pEtx1bp2uPqI+f1QBS/1cXRqS/l+fo0RV5eqM8gz3LsJVbEc0e06ErD23SiWNaovr7Gi8iYenB5YW65YMi+UP83gCAAxEAAIDTHVni1+9Pr9LYojhaDSD1P7GStK3Jqyc/z9OTq4aoup2Ty2FOaWZI8ybt1LwpTRqZ188yfymuJv6StKEuTVe/yVt/AHA4AgAAwNdnA9x4VINuOKpOHk8cdgv9hAHhkEsLN+To6ZVDtHBTBocGwhIeV0SzRndo7uSdmjW2Re6UKH434uzXJxh06bdLi3Tn0gL2+gMACAAAAP9rYn5AD562XUeUtce6Kb2LYv5S1+rVn1fl6rnVuVrV4DXfJiSdSQUBXTJppy4+uEVF2Yn3tn+X5RWZuvatEq1t5PcAACCJAAAA0JvLJzXr9pk7lJcRinVTehfli8yV2zP0/OpcvfBlDlsEsFelmSFdMKFFFx7crMklHdH9oTgdQTV1pOjmRcP0+KrcWDcFABBfCAAAAL0r9IV1x4xafXdKY9QT7piIom2RsLS0IksvrcvRy19la0cHYQCkYRkhnXNgq84d36KjytqiOwwznkdNEempz/N10+KhqvfH08meAIA4QQAAANi7I4b5de8p2zW5tDPWTdm7KEOKb4YBr6zPZmWAw5RmhvTtcQOc9EvxPfGXtLI6XT95u0TLd3DIHwCgTwQAAID+uRXRZZNadOuMGhVkBWPdnP5Fu2IhIn1alamFG7L11sYsfV7PXulkNKUwoNMOaNOssa06bHj7gP5+xLuGNo9uXVysJ1blcCUmAKA/BAAAgOjleMO68ah6/fDwhvi8LaA3A5gTbd+ZpoXlWXqnPEuLKjLU2s2EKhFlp0Y0s6xDJ49p06wxbSoZMoArLhPkr3Uw6NJDnxTozqWFagmw3B8AEBUCAADAwI3JDeiXx9fprPHN8X0+QE8DaGsw6Nayygz9Y3OWPtiaqWU7vFwvGKc8roimDQvo2P3adcL+bZo2okMeT3hghSTKaCgivbouV794r0jlzaxYAQAMCAEAAGDwji71686ZNTpsZJxeG7g3A5zLt/k9+rAiQ0u2ZWrZtgwCgRjaNeGfNrJDx4xs1/SyDmX5BrE1JcFGQJ9uy9SNi4r1UTX7/AEAg0IAAADYd+cc0KZbZ9TogKIBLLWOJ4OYxwcCKVpWna5PqjK1rNKnT7anq6aTpdgmFKeHdXhJp6aN8Ovw4e2aNrxD3tQBvuGXEm7Cv8vGujTdurhYL2/MinVTAACJjQAAAGANtyKae3Crfj69VmV5gVg3Z/D24aV+ZZNPn+1I0+c70rViu0+ran2EAgNUnB7WpKF+HVri15RhnZo6rEsj8vyDLzCBRzkVTV7d9eFQPb06mwP+AABWIAAAAFjL44roB1Oa9W9H16k4uzvWzdl3+zjvamj1akVNmr6qS9eq+lRtqE/X2oZUxx8wmJ0a0cSCbo0t7NSkwm4dWNSpQ4u7VJC9j+FREoxqalpTdfdHRXrk81y2mQAArEQAAAAww5cS0ZWH7NT1R9UnRxCwi0XzsZrmNK1rTFVFk1flO7/+5+3NXm3YmarmQHJM+nK9EY0d0q2S3IDG53drzJAuleV9/c/FuRZtF0miUUxNa6p+t7RQj34xRP5QcvwdAADEFQIAAIBZvpSILpvUrJ9Mq0/srQF9MTBP83d5tLXZq4rWFNW1paqmLVXbWlNU2+5WU4dX9Z0e1XW6VdMRm+0FxRlhFaWHVZgeVF5GQEMzwxqZHVJxVreKsrpVlh3SfrkB+dIGcTBff5Jw1FLR5NW9ywr1xKpcJv4AAJMIAAAA9vC4IvrOQa26flpd4h4WGC0b53Cdfo9aulLUFnCrrjNFnSGpye9WOOxSR1eqJCkUlhr9KXstpzA9JNe/2p2R1i23O6I8X1jpKVJxRkgZqWHlpIWUPpjT9vdFEo9SNtal6XfLivTMmmyW+gMA7EAAAACwl1sRffuAdt1wZL0OHdER6+bYh/nd3jloNLKiMkN3Ly3Ua+WZHO4HALATAQAAIHaOLvXrp0c06PRxzXI59bB8p83/HDrqiISlN9fn6p7lBfqo2hfr5gAAnIkAAAAQe2Nyu3X11CbNm9ykTF8o1s2JL4kWEDCq2E27P0VPrszT7z/LU3lzaqybAwBwNgIAAED8yEoN67sHtegHUxs0NtnPCTDJqtCAEcKgbahL0yOfFeipNTlq63bq8hYAQJwhAAAAxKeZIzt15bcaNXtcizweuirEv2DQpTfW5+jRf+Zr0bb0WDcHAICeCAAAAPFtaHpI8ybt1GVTdmpUPqsCEH+2NKbpic+H6MlVQ1TbuffbFgAAiCECAABA4jh+RKe+O7lJ3x7fIp83HOvmwMH8AbdeWZejp1bm6b1K3vYDABICAQAAIPHkesM6e2ybvjOpSUfv1554B+UhMUWkj7Zm6plVeVqwIUvNAfb2AwASCgEAACCxlWUFddHEFs2Z2KyDh3XGujlIQqt3pGv+2lw9tzZHFW2eWDcHAIDBIgAAACSPg/MDOmd8i84d36JxQ/2xbg4S2Ppan15al6OX1+VodaM31s0BAMAKBAAAgOR0cH5AZ49v1RljWzWppCPWzUECWLU9Q69vyNaCddlM+gEAyYgAAACQ/EZlB3XWuFbNOqBVx5S1yc1B7ZAUDklLKrK0cGO2Xl2frS2tLO8HACQ1AgAAgLPkesM6eVS7ThvTppNGt6kouzvWTYKN6lpT9e6mLL1VnqV3tmRykB8AwEkIAAAAzjZ1aJdmjmrXCaPadNTIDnlTuV4wmQS63Vq6LUP/2JKlRVsy9VltWqybBABArBAAAACwi9cd0TEjOjWjrEPTy9p1eGmHPB66yUQSDLr0SXWGPqzI1OKKDC2pTFcgzD2RAACIAAAAgL75UiI6qtSv6SM7dERph6aN6FCWLxTrZuEb2vwpWlaZoeXVGfpwW4aWVvvkDzHhBwCgFwQAAAAMxOTCbh06rEOHlXbqsBK/JhR1skrAJsGgS1/WpevT7T59Wp2uFTsytLI+NdbNAgAgURAAAACwL7zuiA4pCuiQYZ2aMtSvg4u7NKmoU740zhLYF/4ut1bVpWt1TZo+r/Xpix3p+qLOy3J+AAAG73buuwEAYB8Ewi59UpOmT2p2P1xuTE5QE4s6NbGwW+MK/DqwsFtj87uU5QvGqKXxqc3v0YbGNH1Vn6r1DT6trU/V2rp0lbcwRAEAwGqsAAAAwEbF6WGNywtov/wuHZAb1H5D/CrLDWn/3G4VZXXJnRLrFlorHJLq2tK0uTlVFc0p2rrTp43NHm1tTNP6Jq9qOrmGDwAAm7ACAAAAO9V0ulXT6dMH1b49PnMrov1ywirNDKowq0ulWWGNyA5qaEa3cjKCGpYRVmF6WIXp3cpKD0qxWg0fkdo6ParvTFV9p1s7Otxq6fCotiNVla0eVbe5Vd+Wpup2j7a2uBWOWUMBAMA3EQAAABAnwnJpc0uKNrekSOr/vvq8tLByvBHl+cLK8YbkSwkr81/BQH5aWL5/rSbI8ISVnbb3BX+tXS51BL9+G+8PSY1dbikitXd65A+51RJIUZPfrZaAS01dvLUHACAREQAAAJCgmrrcauqStramSOI0fAAAsHdE+AAAAAAAOAABAAAAAAAADkAAAAAAAACAAxAAAAAAAADgAAQAAAAAAAA4AAEAAAAAAAAOQAAAAAAAAIADEAAAAAAAAOAABAAAAAAAADgAAQAAAAAAAA5AAAAAAAAAgAMQAAAAAAAA4AAEAAAAAAAAOAABAAAAAAAADkAAAAAAAACAAxAAAAAAAADgAAQAAAAAAAA4AAEAAAAAAAAOQAAAAAAAAIADEAAAAAAAAOAABAAAAAAAADgAAQAAAAAAAA5AAAAAAAAAgAMQAAAAAAAA4AAEAAAAAAAAOAABAAAAAAAADkAAAAAAAACAAxAAAAAAAADgAAQAAAAAAAA4AAEAAAAAAAAOQAAAAAAAAIADEAAAAAAAAOAABAAAAAAAADgAAQAAAAAAAA5AAAAAAAAAgAMQAAAAAAAA4AAEAAAAAAAAOAABAAAAAAAADkAAAAAAAACAAxAAAAAAAADgAAQAAAAAAAA4AAEAAAAAAAAOQAAAAAAAAIADEAAAAAAAAOAABAAAAAAAADgAAQAAAAAAAA5AAAAAAAAAgAMQAAAAAAAA4AAEAAAAAAAAOAABAAAAAAAADkAAAAAAAACAAxAAAAAAAADgAAQAAAAAAAA4AAEAAAAAAAAOQAAAAAAAAIADEAAAAAAAAOAABAAAAAAAADgAAQAAAAAAAA5AAAAAAAAAgAMQAAAAAAAA4AAEAAAAAAAAOAABAAAAAAAADkAAAAAAAACAAxAAAAAAAADgAAQAAAAAAAA4AAEAAAAAAAAOQAAAAAAAAIADEAAAAAAAAOAABAAAAAAAADgAAQAAAAAAAA5AAAAAAAAAgAMQAAAAAAAA4AAEAAAAAAAAOAABAAAAAAAADkAAAAAAAACAAxAAAAAAAADgAAQAAAAAAAA4AAEAAAAAAAAOQAAAAAAAAIADEAAAAAAAAOAABAAAAAAAADgAAQAAAAAAAA5AAAAAAAAAgAMQAAAAAAAA4AAEAAAAAAAAOAABAAAAAAAADkAAAAAAAACAAxAAAAAAAADgAAQAAAAAAAA4AAEAAAAAAAAOQAAAAAAAAIADEAAAAAAAAOAABAAAAAAAADgAAQAAAAAAAA5AAAAAAAAAgAMQAAAAAAAA4AAEAAAAAAAAOAABAAAAAAAADkAAAAAAAACAAxAAAAAAAADgAP8PRvzGYtBqsmYAAAAASUVORK5CYII=;" vertex="1" parent="1">
          <mxGeometry x="-12" y="-125" width="497.4" height="322.05" as="geometry" />
        </mxCell>
      </root>
    </mxGraphModel>
  </diagram>
</mxfile>
